<svg id="Capa_1" data-name="Capa 1" xmlns="http://www.w3.org/2000/svg" viewBox="0 0 410.35 214.52"><defs><style>.cls-1{fill:#595959;}</style></defs><title>SMART SOLUTION</title><path class="cls-1" d="M236.49,104.46v-3.91a20.11,20.11,0,0,0,4,1.34,15,15,0,0,0,2.43.22,4.31,4.31,0,0,0,3-.89,2.82,2.82,0,0,0,.94-2.14,2.9,2.9,0,0,0-.56-1.72,9.22,9.22,0,0,0-2.69-2l-1.53-.85a14.43,14.43,0,0,1-4.45-3.39,6,6,0,0,1,.78-8A8,8,0,0,1,244,81.31a28.25,28.25,0,0,1,6.2.78v3.65a17.3,17.3,0,0,0-5.65-1.31,4,4,0,0,0-2.62.74A2.26,2.26,0,0,0,241,87a2.36,2.36,0,0,0,.55,1.5,9.88,9.88,0,0,0,2.67,1.88l1.65,0.94q3.77,2.11,4.82,3.66a6.49,6.49,0,0,1-1.11,8.3q-2.14,2-6.8,2A31.85,31.85,0,0,1,236.49,104.46Z" transform="translate(-9.33 -5.01)"/><path class="cls-1" d="M255.79,104.64V81.85H262l5.5,16,5.65-16h5.51v22.79h-4.32V87.45l-5.56,15.68H265l-5.46-15.9v17.41h-3.78Z" transform="translate(-9.33 -5.01)"/><path class="cls-1" d="M281.9,104.64l8.87-22.79h4.71l8.91,22.79h-4.88l-2.36-6.08h-9.42l-2.37,6.08H281.9Zm7-9.11H296l-3.53-9.09Z" transform="translate(-9.33 -5.01)"/><path class="cls-1" d="M307.62,104.64V81.85h8.53a9.56,9.56,0,0,1,4,.65,5,5,0,0,1,2.17,2,5.77,5.77,0,0,1,.79,3,6.82,6.82,0,0,1-1.16,3.77A7.33,7.33,0,0,1,318.67,94l7.47,10.65h-5.74l-5.65-9.31h-2.61v9.31h-4.52Zm4.46-12.44h1.09q2.94,0,4.06-1.28A4.27,4.27,0,0,0,318.35,88a2.82,2.82,0,0,0-.94-2.22q-0.94-.82-3.7-0.83h-1.65V92.2h0Z" transform="translate(-9.33 -5.01)"/><path class="cls-1" d="M335,104.64V85h-8.16V81.86h21.06V85h-8.16v19.63H335Z" transform="translate(-9.33 -5.01)"/><path class="cls-1" d="M236.49,142.3v-3.91a20.13,20.13,0,0,0,4,1.34,15.06,15.06,0,0,0,2.43.22,4.31,4.31,0,0,0,3-.89,2.82,2.82,0,0,0,.94-2.15,2.9,2.9,0,0,0-.56-1.72,9.23,9.23,0,0,0-2.69-2l-1.53-.85a14.43,14.43,0,0,1-4.45-3.39,6,6,0,0,1,.78-8,8,8,0,0,1,5.65-1.84,28.25,28.25,0,0,1,6.2.78v3.65a17.3,17.3,0,0,0-5.65-1.31A4,4,0,0,0,242,123a2.26,2.26,0,0,0-.94,1.8,2.36,2.36,0,0,0,.55,1.5,9.88,9.88,0,0,0,2.67,1.88l1.65,0.94q3.77,2.11,4.82,3.66a6.49,6.49,0,0,1-1.11,8.3q-2.14,2-6.8,2A31.82,31.82,0,0,1,236.49,142.3Z" transform="translate(-9.33 -5.01)"/><path class="cls-1" d="M265.93,143.06a12.49,12.49,0,0,1-6.19-1.47,9.61,9.61,0,0,1-4-4.24,15,15,0,0,1,0-12.51,9.59,9.59,0,0,1,4-4.24,13.66,13.66,0,0,1,12.33,0,9.59,9.59,0,0,1,4,4.24,15,15,0,0,1,0,12.51,9.63,9.63,0,0,1-4,4.24A12.46,12.46,0,0,1,265.93,143.06Zm0-3.13a5.33,5.33,0,0,0,4.91-2.69,12.56,12.56,0,0,0,0-12.32,5.84,5.84,0,0,0-9.81,0,12.55,12.55,0,0,0,0,12.32A5.34,5.34,0,0,0,265.93,139.93Z" transform="translate(-9.33 -5.01)"/><path class="cls-1" d="M281.74,142.5V119.7h4.71v19.56H296.6v3.23H281.74Z" transform="translate(-9.33 -5.01)"/><path class="cls-1" d="M299.89,119.7h4.71v14q0,3.77,1.29,5a4.61,4.61,0,0,0,3.33,1.23,4.29,4.29,0,0,0,3.21-1.21q1.2-1.21,1.2-4.71V119.7h4.12v14q0,4-1,5.65a7,7,0,0,1-2.87,2.7,10.18,10.18,0,0,1-4.75.94,11.77,11.77,0,0,1-4.87-.94,7.39,7.39,0,0,1-3.22-2.72q-1.19-1.81-1.19-5.76V119.7h0Z" transform="translate(-9.33 -5.01)"/><path class="cls-1" d="M329,142.5V122.85H320.8V119.7h21.06v3.14H333.7v19.64H329Z" transform="translate(-9.33 -5.01)"/><path class="cls-1" d="M345,142.5V119.7h4.71v22.79H345Z" transform="translate(-9.33 -5.01)"/><path class="cls-1" d="M365.65,143.06a12.49,12.49,0,0,1-6.19-1.47,9.61,9.61,0,0,1-4-4.24,15,15,0,0,1,0-12.51,9.59,9.59,0,0,1,4-4.24,13.66,13.66,0,0,1,12.33,0,9.59,9.59,0,0,1,4,4.24,15,15,0,0,1,0,12.51,9.63,9.63,0,0,1-4,4.24A12.46,12.46,0,0,1,365.65,143.06Zm0-3.13a5.33,5.33,0,0,0,4.91-2.69,12.56,12.56,0,0,0,0-12.32,5.84,5.84,0,0,0-9.81,0,12.55,12.55,0,0,0,0,12.32A5.34,5.34,0,0,0,365.65,139.93Z" transform="translate(-9.33 -5.01)"/><path class="cls-1" d="M381.46,142.5V119.7h4.18l10.54,15.56V119.7h3.77v22.79h-4.23l-10.46-15.56v15.56h-3.79Z" transform="translate(-9.33 -5.01)"/><path class="cls-1" d="M404.42,142.3v-3.91a20.13,20.13,0,0,0,4,1.34,15.06,15.06,0,0,0,2.43.22,4.31,4.31,0,0,0,3-.89,2.82,2.82,0,0,0,.94-2.15,2.9,2.9,0,0,0-.55-1.72,9.23,9.23,0,0,0-2.69-2l-1.53-.85a14.43,14.43,0,0,1-4.45-3.39,6,6,0,0,1,.78-8,8,8,0,0,1,5.65-1.84,28.25,28.25,0,0,1,6.2.78v3.65a17.3,17.3,0,0,0-5.65-1.31,4,4,0,0,0-2.62.74,2.26,2.26,0,0,0-.94,1.8,2.36,2.36,0,0,0,.55,1.5,9.87,9.87,0,0,0,2.67,1.88l1.65,0.94q3.77,2.11,4.82,3.66a6.49,6.49,0,0,1-1.11,8.3q-2.14,2-6.8,2A31.81,31.81,0,0,1,404.42,142.3Z" transform="translate(-9.33 -5.01)"/><path class="cls-1" d="M237.77,180.33V157.54h4.71v22.79h-4.71Z" transform="translate(-9.33 -5.01)"/><path class="cls-1" d="M248.23,180.33V157.54h4.18L263,173.11V157.54h3.77v22.79h-4.24L252,164.76v15.56h-3.8Z" transform="translate(-9.33 -5.01)"/><path class="cls-1" d="M290.79,179.43a14.3,14.3,0,0,1-2.6.94,26.29,26.29,0,0,1-5.3.56q-6,0-8.92-3.37a14.06,14.06,0,0,1,0-17.2q2.93-3.35,9.22-3.35a31.78,31.78,0,0,1,7.39.88v3.71q-1.77-.62-2.89-0.94a19.11,19.11,0,0,0-2.14-.42,14.68,14.68,0,0,0-2-.14q-3.93,0-5.65,2.52a10.62,10.62,0,0,0-1.77,6.25,9.58,9.58,0,0,0,2,6.33,7.32,7.32,0,0,0,6,2.42,15.2,15.2,0,0,0,6.73-1.68v3.49h-0.06Z" transform="translate(-9.33 -5.01)"/><path class="cls-1" d="M293.5,180.33v-4.94h4.94v4.94H293.5Z" transform="translate(-9.33 -5.01)"/><path class="cls-1" d="M137.3,19.47a57.2,57.2,0,0,1,19-6.88,107.51,107.51,0,0,0-86.86,3.33A94.53,94.53,0,0,1,90,13.83Q111.14,13.83,137.3,19.47Z" transform="translate(-9.33 -5.01)"/><path class="cls-1" d="M80.46,185.16q16.45,0,24.55-7.36t8.1-17.64a23.88,23.88,0,0,0-4.54-14.22q-4.54-6.22-22.2-16.12l-12.67-7Q46.56,107.78,37,94.91a47.77,47.77,0,0,1-9.73-29.7A48.51,48.51,0,0,1,29.9,49.11a107.29,107.29,0,0,0-2.11,123.34q21.85,9.17,32.67,11A123.19,123.19,0,0,0,80.46,185.16Z" transform="translate(-9.33 -5.01)"/><path class="cls-1" d="M73.34,45.73q-7.4,6.16-7.4,14.78a19.44,19.44,0,0,0,4.53,12.32q4.4,5.72,22.06,15.61L106.1,96q31.07,17.39,39.67,30.2a51.93,51.93,0,0,1,8.47,29,53.67,53.67,0,0,1-2,14.67,104.77,104.77,0,0,0,11.82.73q15.3,0,22.84-6.84a21.38,21.38,0,0,0,7.53-16.41,22.2,22.2,0,0,0-4.22-13.18q-4.22-5.79-20.65-15l-11.79-6.5q-25.29-14.14-34.24-26a46.7,46.7,0,0,1-6.18-43.74,92.75,92.75,0,0,0-22.47-3.33Q80.74,39.55,73.34,45.73Z" transform="translate(-9.33 -5.01)"/><path class="cls-1" d="M157.45,40.83q-6.89,5.72-6.88,13.76A18.09,18.09,0,0,0,154.79,66q4.09,5.31,20.52,14.53l12.62,7q27.37,15.31,36,26.79v-2.06A106.91,106.91,0,0,0,193,36.94a78,78,0,0,0-15.46-1.8Q164.29,35.1,157.45,40.83Z" transform="translate(-9.33 -5.01)"/><path class="cls-1" d="M138.54,192.68c-0.63.63-1.27,1.26-1.94,1.88q-17.6,16.35-56,16.35-3.15,0-6.45-.12a107.34,107.34,0,0,0,113.69-18.36,123.65,123.65,0,0,1-23.68,2.07A198.79,198.79,0,0,1,138.54,192.68Z" transform="translate(-9.33 -5.01)"/></svg>